<?xml version="1.0" standalone="no"?>
<!DOCTYPE svg PUBLIC "-//W3C//DTD SVG 20010904//EN"
 "http://www.w3.org/TR/2001/REC-SVG-20010904/DTD/svg10.dtd">
<svg version="1.0" xmlns="http://www.w3.org/2000/svg"
 width="500.000000pt" height="500.000000pt" viewBox="0 0 500.000000 500.000000"
 preserveAspectRatio="xMidYMid meet">
<metadata>
Created by potrace 1.14, written by Peter Selinger 2001-2017
</metadata>
<g transform="translate(0.000000,500.000000) scale(0.100000,-0.100000)"
fill="#000000" stroke="none">
<path d="M2340 4844 c-19 -2 -78 -9 -130 -14 -52 -6 -149 -22 -215 -35 -579
-117 -1145 -524 -1477 -1061 -159 -257 -252 -511 -318 -864 -31 -166 -38 -465
-16 -671 60 -547 298 -1035 694 -1420 306 -299 625 -477 1033 -578 332 -82
676 -91 1024 -27 725 134 1346 622 1653 1299 154 342 219 672 209 1067 -6 230
-22 354 -72 546 -83 318 -210 585 -403 843 -372 497 -937 825 -1552 901 -93
11 -375 21 -430 14z"/>
</g>
</svg>
